<svg width="1000" height="1000" xmlns="http://www.w3.org/2000/svg" version="1.1">
 <g>
  <title>Layer 1</title>
  <g id="svg_3" transform="matrix(1 0 0 1 1.11856 -1.02721)">
   <svg y="137.00005" x="-0.00005" id="svg_16" width="1000" height="726" preserveAspectRatio="xMidYMid meet" data-background-color="#141414" viewBox="0 0 194 141" xmlns:xlink="http://www.w3.org/1999/xlink" xmlns="http://www.w3.org/2000/svg">

    <g transform="matrix(1,0,0,1,-0.21699999999998454,0.19949999999997203)" id="svg_1">
     <svg id="svg_17" width="194.43385" height="140.60052" viewBox="0 0 194.433851 140.60052000000002">
      <svg id="svg_18" width="194.43385" height="140.60052" viewBox="0 0 194.433851 140.60052000000002">
       <svg id="svg_19" width="194.43385" height="140.60052" viewBox="0 0 194.433851 140.60052000000002">
        <g id="svg_20">
         <path id="svg_21" data-fill-palette-color="tertiary" rx="0%" stroke-width="0" stroke="transparent" fill="#ff7b00" d="m0,140.601l0,-140.601l194.434,0l0,140.601l-194.434,0z"/>
         <path id="svg_22" data-fill-palette-color="quaternary" rx="0%" stroke-width="0" stroke="transparent" fill="#141414" d="m3.283,137.317l0,-134.034l187.868,0l0,134.034l-187.868,0z"/>
         <path id="svg_23" data-fill-palette-color="tertiary" stroke-width="0" stroke="transparent" fill="#ff7b00" d="m9.85,130.751l0,-120.901l174.734,0l0,120.901l-174.734,0z"/>
        </g>
        <g id="svg_11" transform="matrix(1,0,0,1,19.69974,19.69974)">
         <svg id="svg_24" width="155.03437" height="101.20104" viewBox="0 0 155.03437100000002 101.20104000000002">
          <svg id="svg_25" width="155.03437" height="101.20104" viewBox="0 0 155.03437100000002 101.20104000000002">
           <svg id="svg_26" data-palette-color="#141414" height="101.20104" viewBox="1.95 -35.5 55.15 36" width="155.03437">
            <path id="svg_14" data-fill-palette-color="quaternary" class="undefined-text-0" fill="#141414" d="m7.8,-13.95l-4.4,0q-0.8,0 -0.87,-0.28q-0.08,-0.27 -0.08,-0.92l0,0l0,-18.9q0,-0.1 0.05,-0.53q0.05,-0.42 0.65,-0.42l0,0l4.55,0q3.15,0 5.25,0.98q2.1,0.97 3.12,3.17q1.03,2.2 1.03,5.85l0,0q0,3.2 -0.78,5.32q-0.77,2.13 -2.07,3.38q-1.3,1.25 -2.95,1.8q-1.65,0.55 -3.5,0.55l0,0zm-5.85,13.95l0,0l0,-34.1q0,0 0.1,-0.45q0.1,-0.45 0.8,-0.45l0,0l2.8,0q0.65,0 0.75,0.45q0.1,0.45 0.1,0.45l0,0l0,33.2q0,0.45 -0.2,0.62q-0.2,0.18 -1.15,0.23q-0.95,0.05 -3.2,0.05zm13.3,0.1l0,0q-0.55,0 -1.22,-0.02q-0.68,-0.03 -1.48,-0.08l0,0q-0.2,-4.35 -0.92,-7.25q-0.73,-2.9 -1.6,-4.58q-0.88,-1.67 -1.5,-2.4q-0.63,-0.72 -0.63,-0.72l0,0q0,0 -0.12,-0.33q-0.13,-0.32 0.42,-0.62l0,0l2.5,-1.45q0.7,0 0.95,0.5l0,0q0,0 0.83,0.87q0.82,0.88 1.92,2.78q1.1,1.9 2.03,4.92q0.92,3.03 1.12,7.28l0,0q0.05,0.65 -0.3,0.87q-0.35,0.23 -2,0.23zm-8.8,-31.1l0,12.8l1.85,0q1.2,0 2,-0.65q0.8,-0.65 1.25,-2.2q0.45,-1.55 0.45,-4.15l0,0q0,-1.9 -0.32,-3.2q-0.33,-1.3 -1.05,-1.95q-0.73,-0.65 -2.03,-0.65l0,0l-2.15,0zm31.2,31l-3.5,0l-5.55,-13.65q-0.35,-0.9 -0.85,-2.4q-0.5,-1.5 -1.08,-3.3q-0.57,-1.8 -1.07,-3.6q-0.5,-1.8 -0.95,-3.3q-0.45,-1.5 -0.7,-2.4q-0.25,-0.9 -0.25,-0.9l0,0l-2.65,-2.75l0.3,-2.7l3.5,0l5.5,13.4q0.4,1 0.92,2.55q0.53,1.55 1.08,3.32q0.55,1.78 1.05,3.5q0.5,1.73 0.92,3.18q0.43,1.45 0.68,2.32q0.25,0.88 0.25,0.88l0,0l2.8,3.15l-0.4,2.7zm-17.2,0l0,0l0,-34.1q0,-0.9 0.9,-0.9l0,0l3.65,0.9l-0.65,6.7q0.15,0.8 0.22,2q0.08,1.2 0.15,2.6q0.08,1.4 0.13,2.85q0.05,1.45 0.07,2.8q0.03,1.35 0.05,2.45q0.03,1.1 0.03,1.75l0,0l0,12.05q0,0.45 -0.2,0.62q-0.2,0.18 -1.13,0.23q-0.92,0.05 -3.22,0.05zm17.2,0l0,0l-3.7,-0.9l0.6,-7.65q-0.15,-0.85 -0.23,-2.03q-0.07,-1.17 -0.12,-2.5q-0.05,-1.32 -0.1,-2.67q-0.05,-1.35 -0.08,-2.6q-0.02,-1.25 -0.05,-2.3q-0.02,-1.05 -0.02,-1.75l0,0l0,-11.7q0,-0.45 0.2,-0.63q0.2,-0.17 1.17,-0.22q0.98,-0.05 3.18,-0.05l0,0l0,34.1q0,0.9 -0.85,0.9zm10.45,0.5l0,0q-3.35,0 -4.95,-1q-1.6,-1 -1.6,-2.1l0,0q0,-0.7 0.27,-1.63q0.28,-0.92 0.83,-1.67l0,0q0.8,0.7 2.07,1.2q1.28,0.5 2.93,0.5l0,0q2.45,0 3.47,-1.28q1.03,-1.27 1.03,-3.37l0,0q0,-1.6 -0.58,-2.95q-0.57,-1.35 -2.12,-3.2l0,0l-4.85,-5.9q-1.7,-2.15 -2.38,-3.85q-0.67,-1.7 -0.67,-3.4l0,0q0,-3.25 2.22,-5.3q2.23,-2.05 6.53,-2.05l0,0q3.6,0 5.1,0.73q1.5,0.72 1.5,1.87l0,0q0,0.55 -0.25,1.25q-0.25,0.7 -0.85,1.35l0,0q-0.45,-0.35 -1.75,-0.75q-1.3,-0.4 -2.95,-0.4l0,0q-2.1,0 -3.35,0.82q-1.25,0.83 -1.25,2.33l0,0q0,1.3 0.55,2.37q0.55,1.08 1.6,2.43l0,0l5.2,6.15q1.9,2.3 2.57,4.17q0.68,1.88 0.68,4.13l0,0q0,2.55 -0.83,4.72q-0.82,2.18 -2.75,3.5q-1.92,1.33 -5.42,1.33z"/>
           </svg>
          </svg>
         </svg>
        </g>
       </svg>
       <g id="svg_27"/>
      </svg>
     </svg>
     <rect id="svg_28" visibility="hidden" fill="none" height="140.60052" width="194.43385"/>
    </g>
   </svg>
  </g>
 </g>
</svg>